<?xml version="1.0" encoding="utf-8"?>
<svg width="16" height="16" version="1.1" xmlns="http://www.w3.org/2000/svg">
  <style type="text/css" id="current-color-scheme" xmlns="">
      .ColorScheme-Text {
        color:#31363b;
      }
</style>
 <defs>
  
 </defs>
 <path d="m2 1c-1.108 0-2 0.892-2 2v9c0 1.108 0.892 2 2 2h12c1.108 0 2-0.892 2-2v-9c0-1.108-0.892-2-2-2zm0 1h12c0.554 0 1 0.446 1 1v9c0 0.554-0.446 1-1 1h-12c-0.554 0-1-0.446-1-1v-9c0-0.554 0.446-1 1-1z" stroke-linecap="round" stroke-linejoin="round" stroke-width="1.9215" style="paint-order:stroke fill markers;fill:currentColor" class="ColorScheme-Text" />
 <rect x="2" y="7" width="5" height="1" rx=".5" ry=".5" stroke-linecap="round" stroke-linejoin="round" stroke-width="2" style="paint-order:stroke fill markers;fill:currentColor" class="ColorScheme-Text" />
 <rect x="4" y="5" width="1" height="5" rx=".5" ry=".5" stroke-linecap="round" stroke-linejoin="round" stroke-width="2" style="paint-order:stroke fill markers;fill:currentColor" class="ColorScheme-Text" />
 <circle cx="11.5" cy="5.5" r=".5" stroke-linecap="round" stroke-linejoin="round" stroke-width="2" style="paint-order:stroke fill markers;fill:currentColor" class="ColorScheme-Text" />
 <circle cx="11.5" cy="9.5" r=".5" stroke-linecap="round" stroke-linejoin="round" stroke-width="2" style="paint-order:stroke fill markers;fill:currentColor" class="ColorScheme-Text" />
 <circle cx="9.5" cy="7.5" r=".5" stroke-linecap="round" stroke-linejoin="round" stroke-width="2" style="paint-order:stroke fill markers;fill:currentColor" class="ColorScheme-Text" />
 <circle cx="13.5" cy="7.5" r=".5" stroke-linecap="round" stroke-linejoin="round" stroke-width="2" style="paint-order:stroke fill markers;fill:currentColor" class="ColorScheme-Text" />
</svg>