<?xml version="1.0" encoding="utf-8"?>

<svg width="16" height="16" version="1.1" xmlns="http://www.w3.org/2000/svg">
  <style type="text/css" id="current-color-scheme" xmlns="">
      .ColorScheme-Text {
        color:#31363b;
      }
</style>
  
 <defs>
  
 </defs>
 <path class="ColorScheme-Text" d="m2 1c-1.108 0-2 0.892-2 2v9c0 1.108 0.892 2 2 2h12c1.108 0 2-0.892 2-2v-9c0-1.108-0.892-2-2-2h-12zm0 1h12c0.554 0 1 0.446 1 1v9c0 0.554-0.446 1-1 1h-12c-0.554 0-1-0.446-1-1v-9c0-0.554 0.446-1 1-1z" fill="currentColor" style="fill:currentColor" />
 <rect x="9" y="9" width="4" height="1" rx="0" ry="0" stroke-linecap="round" stroke-linejoin="round" stroke-width="1.2247" style="paint-order:stroke fill markers;fill:currentColor" class="ColorScheme-Text" />
 <path d="m5.8281 4.1719-2.8281 2.8281 2.8281 2.8281 0.70703-0.70703-2.1211-2.1211 2.1211-2.1211z" stroke-linecap="round" stroke-linejoin="round" stroke-width="1.2247" style="paint-order:stroke fill markers;fill:currentColor" class="ColorScheme-Text" />
</svg>