<?xml version="1.0" encoding="utf-8"?>

<svg width="16" height="16" version="1.1" xmlns="http://www.w3.org/2000/svg" xmlns:cc="http://creativecommons.org/ns#" xmlns:dc="http://purl.org/dc/elements/1.1/" xmlns:rdf="http://www.w3.org/1999/02/22-rdf-syntax-ns#">
  <style type="text/css" id="current-color-scheme" xmlns="">
      .ColorScheme-Text {
        color:#31363b;
      }
</style>
 <metadata>
  <rdf:RDF style="fill:currentColor" class="ColorScheme-Text">
   <cc:Work rdf:about="" style="fill:currentColor" class="ColorScheme-Text">
    <dc:format style="fill:currentColor" class="ColorScheme-Text">image/svg+xml</dc:format>
    <dc:type rdf:resource="http://purl.org/dc/dcmitype/StillImage" style="fill:currentColor" class="ColorScheme-Text" />
    <dc:title style="fill:currentColor" class="ColorScheme-Text" />
   </cc:Work>
  </rdf:RDF>
 </metadata>
 <g stroke-linecap="round" stroke-linejoin="round" style="fill:currentColor" class="ColorScheme-Text">
  <path d="m3 1c-1.108 0-2 0.892-2 2v10c0 1.108 0.892 2 2 2h10c1.108 0 2-0.892 2-2v-10c0-1.108-0.892-2-2-2h-10zm0 1h10c0.554 0 1 0.446 1 1v10c0 0.554-0.446 1-1 1h-10c-0.554 0-1-0.446-1-1v-10c0-0.554 0.446-1 1-1z" style="fill:currentColor" class="ColorScheme-Text" />
  <path d="m6 9c-0.554 0-1 0.446-1 1v1c0 0.554 0.446 1 1 1h4c0.554 0 1-0.446 1-1v-1c0-0.554-0.446-1-1-1zm0 1h4v1h-4z" style="fill:currentColor" class="ColorScheme-Text" />
  <path d="m5 7v1h5v2h1v-2c0-0.554-0.446-1-1-1z" style="fill:currentColor" class="ColorScheme-Text" />
  <rect transform="rotate(-30)" x="2.1603" y="7.5981" width="5" height="1" rx="0" ry="0" stroke-width=".91287" style="fill:currentColor" class="ColorScheme-Text" />
 </g>
</svg>