<?xml version="1.0" encoding="utf-8"?>
<svg width="16" height="16" version="1.1" xmlns="http://www.w3.org/2000/svg">
  <style type="text/css" id="current-color-scheme" xmlns="">
      .ColorScheme-Text {
        color:#31363b;
      }
</style>
 <g stroke-linecap="round" stroke-linejoin="round" stroke-width="1.0016" style="fill:currentColor" class="ColorScheme-Text">
  <path d="m3 0c-1.108 0-2 0.892-2 2v12c0 1.108 0.892 2 2 2h5v-1h-5c-0.554 0-1-0.446-1-1v-12c0-0.554 0.446-1 1-1h10c0.554 0 1 0.446 1 1v4h1v-4c0-1.108-0.892-2-2-2h-10z" style="fill:currentColor" class="ColorScheme-Text" />
  <path d="m12.5 7a3.5 3.5 0 0 0-3.5 3.5 3.5 3.5 0 0 0 3.5 3.5 3.5 3.5 0 0 0 3.5-3.5 3.5 3.5 0 0 0-3.5-3.5zm0 1a2.5 2.5 0 0 1 2.5 2.5 2.5 2.5 0 0 1-2.5 2.5 2.5 2.5 0 0 1-2.5-2.5 2.5 2.5 0 0 1 2.5-2.5z" style="fill:currentColor" class="ColorScheme-Text" />
  <circle cx="12.5" cy="10.5" r="1.5" style="fill:currentColor" class="ColorScheme-Text" />
  <path d="m11 14c-1.108 0-2 0.892-2 2h1c0-0.554 0.446-1 1-1h3c0.554 0 1 0.446 1 1h1c0-1.108-0.892-2-2-2h-3z" style="fill:currentColor" class="ColorScheme-Text" />
 </g>
</svg>