<?xml version="1.0" encoding="utf-8"?>

<svg width="16" height="16" version="1.1" xmlns="http://www.w3.org/2000/svg" xmlns:cc="http://creativecommons.org/ns#" xmlns:dc="http://purl.org/dc/elements/1.1/" xmlns:rdf="http://www.w3.org/1999/02/22-rdf-syntax-ns#">
  <style type="text/css" id="current-color-scheme" xmlns="">
      .ColorScheme-Text {
        color:#31363b;
      }
</style>
 <metadata>
  <rdf:RDF style="fill:currentColor" class="ColorScheme-Text">
   <cc:Work rdf:about="" style="fill:currentColor" class="ColorScheme-Text">
    <dc:format style="fill:currentColor" class="ColorScheme-Text">image/svg+xml</dc:format>
    <dc:type rdf:resource="http://purl.org/dc/dcmitype/StillImage" style="fill:currentColor" class="ColorScheme-Text" />
    <dc:title style="fill:currentColor" class="ColorScheme-Text" />
   </cc:Work>
  </rdf:RDF>
 </metadata>
 <g style="fill:currentColor" class="ColorScheme-Text">
  <path d="M4.5 8c-.28 0-.5.22-.5.5v4c0 .28.22.5.5.5h7c.28 0 .5-.22.5-.5v-4c0-.28-.22-.5-.5-.5zm1 1c.28 0 .5.22.5.5s-.22.5-.5.5-.5-.22-.5-.5.22-.5.5-.5zm2 0h3c.28 0 .5.22.5.5s-.22.5-.5.5h-3c-.28 0-.5-.22-.5-.5s.22-.5.5-.5zm-2 2c.28 0 .5.22.5.5s-.22.5-.5.5-.5-.22-.5-.5.22-.5.5-.5zm2 0h3c.28 0 .5.22.5.5s-.22.5-.5.5h-3c-.28 0-.5-.22-.5-.5s.22-.5.5-.5z" style="fill:currentColor" class="ColorScheme-Text" />
  <path d="m10.826 0 4.1738 4.1738v-3.1738c0-0.554-0.446-1-1-1z" style="paint-order:stroke fill markers;fill:currentColor" class="ColorScheme-Text" />
  <path d="m3 0c-1.0907 0-2 0.9093-2 2v12c0 1.0907 0.9093 2 2 2h10c1.0907 0 2-0.9093 2-2v-8a1.0001 1.0001 0 0 0-0.29297-0.70703l-5-5a1.0001 1.0001 0 0 0-0.70703-0.29297zm0 1h6l5 5v8c0 0.554-0.446 1-1 1h-10c-0.554 0-1-0.446-1-1v-12c0-0.554 0.446-1 1-1z" color-rendering="auto" dominant-baseline="auto" image-rendering="auto" shape-rendering="auto" style="font-feature-settings:normal;font-variant-alternates:normal;font-variant-caps:normal;font-variant-ligatures:normal;font-variant-numeric:normal;font-variant-position:normal;isolation:auto;mix-blend-mode:normal;paint-order:stroke fill markers;shape-padding:0;text-decoration-line:none;text-decoration-style:solid;text-indent:0;text-orientation:mixed;text-transform:none;white-space:normal;fill:currentColor" class="ColorScheme-Text" />
 </g>
</svg>