<?xml version="1.0" encoding="utf-8"?>
<svg height="16" width="16" xmlns="http://www.w3.org/2000/svg">
  <style type="text/css" id="current-color-scheme" xmlns="">
      .ColorScheme-Text {
        color:#31363b;
      }
</style>
  <g transform="translate(-632 -260)" style="fill:currentColor" class="ColorScheme-Text">
    <path d="M634 261c-1.108 0-2 .892-2 2v8c0 1.108.892 2 2 2h1.522l2.478 3 2-3h6c1.108 0 2-.892 2-2v-8c0-1.108-.892-2-2-2zm0 1h12c.554 0 1 .446 1 1v8c0 .554-.446 1-1 1h-6.434L638 274.4l-1.966-2.4H634c-.554 0-1-.446-1-1v-8c0-.554.446-1 1-1zm-.7 11c.153.017.322.021.524 0z" style="line-height:125%;-inkscape-font-specification:Ubuntu;text-align:center;fill:currentColor" font-weight="400" font-size="15" font-family="Ubuntu" letter-spacing="0" word-spacing="0" text-anchor="middle" class="ColorScheme-Text" />
    <rect height="1" rx=".25" ry=".25" width="10" x="635" y="264" style="fill:currentColor" class="ColorScheme-Text" />
    <rect height="1" rx=".25" ry=".25" width="7" x="635" y="266" style="fill:currentColor" class="ColorScheme-Text" />
  </g>
</svg>