<?xml version="1.0" encoding="utf-8" standalone="no"?>

<svg width="16px" height="16px" version="1.1" viewBox="0 0 16 16" id="svg115" sodipodi:docname="org.gnome.Settings-multitasking-symbolic.svg" inkscape:version="1.1.2 (0a00cf5339, 2022-02-04, custom)" xmlns:inkscape="http://www.inkscape.org/namespaces/inkscape" xmlns:sodipodi="http://sodipodi.sourceforge.net/DTD/sodipodi-0.dtd" xmlns="http://www.w3.org/2000/svg" xmlns:svg="http://www.w3.org/2000/svg">
  <style type="text/css" id="current-color-scheme" xmlns="">
      .ColorScheme-Text {
        color:#31363b;
      }
</style>
  <defs id="defs119" />
  <sodipodi:namedview id="namedview117" pagecolor="#ffffff" bordercolor="#666666" borderopacity="1.0" inkscape:pageshadow="2" inkscape:pageopacity="0.0" inkscape:pagecheckerboard="0" showgrid="false" inkscape:zoom="7.380427" inkscape:cx="-23.304885" inkscape:cy="16.801196" inkscape:window-width="1920" inkscape:window-height="998" inkscape:window-x="0" inkscape:window-y="0" inkscape:window-maximized="1" inkscape:current-layer="svg115" style="fill:currentColor" class="ColorScheme-Text" />
  <filter id="a" x="0" y="0" width="1" height="1" style="fill:currentColor" class="ColorScheme-Text">
    <feColorMatrix in="SourceGraphic" values="0 0 0 0 1 0 0 0 0 1 0 0 0 0 1 0 0 0 1 0" id="feColorMatrix2" style="fill:currentColor" class="ColorScheme-Text" />
  </filter>
  <mask id="b" style="fill:currentColor" class="ColorScheme-Text">
    <g filter="url(#a)" id="g7" style="fill:currentColor" class="ColorScheme-Text">
      <path d="m0 0h16v16h-16z" fill-opacity=".3" id="path5" style="fill:currentColor" class="ColorScheme-Text" />
    </g>
  </mask>
  <clipPath id="c" style="fill:currentColor" class="ColorScheme-Text">
    <path d="m0 0h1024v800h-1024z" id="path10" style="fill:currentColor" class="ColorScheme-Text" />
  </clipPath>
  <mask id="d" style="fill:currentColor" class="ColorScheme-Text">
    <g filter="url(#a)" id="g15" style="fill:currentColor" class="ColorScheme-Text">
      <path d="m0 0h16v16h-16z" fill-opacity=".05" id="path13" style="fill:currentColor" class="ColorScheme-Text" />
    </g>
  </mask>
  <clipPath id="e" style="fill:currentColor" class="ColorScheme-Text">
    <path d="m0 0h1024v800h-1024z" id="path18" style="fill:currentColor" class="ColorScheme-Text" />
  </clipPath>
  <mask id="f" style="fill:currentColor" class="ColorScheme-Text">
    <g filter="url(#a)" id="g23" style="fill:currentColor" class="ColorScheme-Text">
      <path d="m0 0h16v16h-16z" fill-opacity=".05" id="path21" style="fill:currentColor" class="ColorScheme-Text" />
    </g>
  </mask>
  <clipPath id="g" style="fill:currentColor" class="ColorScheme-Text">
    <path d="m0 0h1024v800h-1024z" id="path26" style="fill:currentColor" class="ColorScheme-Text" />
  </clipPath>
  <mask id="h" style="fill:currentColor" class="ColorScheme-Text">
    <g filter="url(#a)" id="g31" style="fill:currentColor" class="ColorScheme-Text">
      <path d="m0 0h16v16h-16z" fill-opacity=".05" id="path29" style="fill:currentColor" class="ColorScheme-Text" />
    </g>
  </mask>
  <clipPath id="i" style="fill:currentColor" class="ColorScheme-Text">
    <path d="m0 0h1024v800h-1024z" id="path34" style="fill:currentColor" class="ColorScheme-Text" />
  </clipPath>
  <mask id="j" style="fill:currentColor" class="ColorScheme-Text">
    <g filter="url(#a)" id="g39" style="fill:currentColor" class="ColorScheme-Text">
      <path d="m0 0h16v16h-16z" fill-opacity=".05" id="path37" style="fill:currentColor" class="ColorScheme-Text" />
    </g>
  </mask>
  <clipPath id="k" style="fill:currentColor" class="ColorScheme-Text">
    <path d="m0 0h1024v800h-1024z" id="path42" style="fill:currentColor" class="ColorScheme-Text" />
  </clipPath>
  <mask id="l" style="fill:currentColor" class="ColorScheme-Text">
    <g filter="url(#a)" id="g47" style="fill:currentColor" class="ColorScheme-Text">
      <path d="m0 0h16v16h-16z" fill-opacity=".05" id="path45" style="fill:currentColor" class="ColorScheme-Text" />
    </g>
  </mask>
  <clipPath id="m" style="fill:currentColor" class="ColorScheme-Text">
    <path d="m0 0h1024v800h-1024z" id="path50" style="fill:currentColor" class="ColorScheme-Text" />
  </clipPath>
  <mask id="n" style="fill:currentColor" class="ColorScheme-Text">
    <g filter="url(#a)" id="g55" style="fill:currentColor" class="ColorScheme-Text">
      <path d="m0 0h16v16h-16z" fill-opacity=".05" id="path53" style="fill:currentColor" class="ColorScheme-Text" />
    </g>
  </mask>
  <clipPath id="o" style="fill:currentColor" class="ColorScheme-Text">
    <path d="m0 0h1024v800h-1024z" id="path58" style="fill:currentColor" class="ColorScheme-Text" />
  </clipPath>
  <mask id="p" style="fill:currentColor" class="ColorScheme-Text">
    <g filter="url(#a)" id="g63" style="fill:currentColor" class="ColorScheme-Text">
      <path d="m0 0h16v16h-16z" fill-opacity=".3" id="path61" style="fill:currentColor" class="ColorScheme-Text" />
    </g>
  </mask>
  <clipPath id="q" style="fill:currentColor" class="ColorScheme-Text">
    <path d="m0 0h1024v800h-1024z" id="path66" style="fill:currentColor" class="ColorScheme-Text" />
  </clipPath>
  <mask id="r" style="fill:currentColor" class="ColorScheme-Text">
    <g filter="url(#a)" id="g71" style="fill:currentColor" class="ColorScheme-Text">
      <path d="m0 0h16v16h-16z" fill-opacity=".5" id="path69" style="fill:currentColor" class="ColorScheme-Text" />
    </g>
  </mask>
  <clipPath id="s" style="fill:currentColor" class="ColorScheme-Text">
    <path d="m0 0h1024v800h-1024z" id="path74" style="fill:currentColor" class="ColorScheme-Text" />
  </clipPath>
  <path d="m4 1c-0.554 0-1 0.446-1 1v1h-2c-0.554 0-1 0.446-1 1v8c0 0.554 0.446 1 1 1h2v1c0 0.554 0.446 1 1 1h8c0.554 0 1-0.446 1-1v-1h2c0.554 0 1-0.446 1-1v-8c0-0.554-0.446-1-1-1h-2v-1c0-0.554-0.446-1-1-1h-8zm0 1h8v12h-8v-12zm-3 2h2v8h-2v-8zm12 0h2v8h-2v-8z" style="paint-order:stroke fill markers;fill:currentColor" id="path113" class="ColorScheme-Text" />
</svg>