<?xml version="1.0" encoding="utf-8"?>
<svg width="16" height="16" version="1.1" xmlns="http://www.w3.org/2000/svg">
  <style type="text/css" id="current-color-scheme" xmlns="">
      .ColorScheme-Text {
        color:#31363b;
      }
</style>
 <path d="m8 0a8 8 0 0 0-8 8 8 8 0 0 0 8 8 8 8 0 0 0 8-8 8 8 0 0 0-8-8zm-0.09375 1a7 7 0 0 1 0.09375 0 7 7 0 0 1 7 7 7 7 0 0 1-7 7 7 7 0 0 1-7-7 7 7 0 0 1 6.9062-7z" stroke-linecap="round" stroke-linejoin="round" stroke-width="1.1446" style="fill:currentColor" class="ColorScheme-Text" />
 <path d="m7 3c-0.554 0-1 0.446-1 1v1l2 1-2 1v5c0 0.554 0.446 1 1 1h2c0.554 0 1-0.446 1-1v-1l-2-1 2-1v-5c0-0.554-0.446-1-1-1h-2z" stroke-linecap="round" stroke-linejoin="round" stroke-width="1.0016" style="fill:currentColor" class="ColorScheme-Text" />
</svg>