<?xml version="1.0" encoding="utf-8"?>
<svg width="16.006" height="16" version="1.1" xmlns="http://www.w3.org/2000/svg">
  <style type="text/css" id="current-color-scheme" xmlns="">
      .ColorScheme-Text {
        color:#31363b;
      }
</style>
 <g style="fill:currentColor" class="ColorScheme-Text">
  <path d="m1 0h5c0.554 0 1 0.446 1 1v5c0 0.554-0.446 1-1 1h-5c-0.554 0-1-0.446-1-1v-5c0-0.554 0.446-1 1-1z" style="fill:currentColor" class="ColorScheme-Text" />
  <path d="m9 0c-0.554 0-1 0.446-1 1v5c0 0.554 0.446 1 1 1h5c0.554 0 1-0.446 1-1v-5c0-0.554-0.446-1-1-1h-5zm0 1h5v5h-5v-5z" style="fill:currentColor" class="ColorScheme-Text" />
  <path d="m9 8c-0.554 0-1 0.446-1 1v5c0 0.554 0.446 1 1 1h5c0.554 0 1-0.446 1-1v-5c0-0.554-0.446-1-1-1zm0 1h5v5h-5z" style="fill:currentColor" class="ColorScheme-Text" />
  <path d="m1 8c-0.554 0-1 0.446-1 1v5c0 0.554 0.446 1 1 1h5c0.554 0 1-0.446 1-1v-5c0-0.554-0.446-1-1-1zm0 1h5v5h-5z" style="fill:currentColor" class="ColorScheme-Text" />
 </g>
</svg>