<?xml version="1.0" encoding="utf-8"?>
<svg width="16" height="16" version="1.1" xmlns="http://www.w3.org/2000/svg">
  <style type="text/css" id="current-color-scheme" xmlns="">
      .ColorScheme-Text {
        color:#31363b;
      }
</style>
 <g class="ColorScheme-Text" color="#363636" fill="currentColor" style="fill:currentColor">
  <path d="m8 0a8 8 0 0 0-8 8 8 8 0 0 0 8 8 8 8 0 0 0 8-8 8 8 0 0 0-8-8zm0 1a7 7 0 0 1 7 7 7 7 0 0 1-7 7 7 7 0 0 1-7-7 7 7 0 0 1 7-7z" style="fill:currentColor" class="ColorScheme-Text" />
  <rect x="8" y="2" width="1" height="7" ry=".5" style="fill:currentColor" class="ColorScheme-Text" />
  <rect transform="rotate(90)" x="8" y="-9" width="1" height="6" ry=".5" style="fill:currentColor" class="ColorScheme-Text" />
 </g>
</svg>