<?xml version="1.0" encoding="utf-8"?>
<svg xmlns="http://www.w3.org/2000/svg" width="16" height="16">
  <style type="text/css" id="current-color-scheme" xmlns="">
      .ColorScheme-Text {
        color:#31363b;
      }
</style>
  <defs>
    <filter id="a" color-interpolation-filters="sRGB" style="fill:currentColor" class="ColorScheme-Text">
      <feBlend mode="darken" in2="BackgroundImage" style="fill:currentColor" class="ColorScheme-Text" />
    </filter>
  </defs>
  <path style="marker:none;fill:currentColor" d="M3 2v4H2C1 6 1 7 1 7v5h2v2h3v-1H4v-1h2V6H4V3h7v2h1V2zm0 6h1v1H3z" color="#000" overflow="visible" filter="url(#a)" enable-background="accumulate" class="ColorScheme-Text" />
  <path d="M8.002 6A.999.999 0 0 0 7 7v4c0 .554.447 1 1.002 1H14a.999.999 0 0 0 1.002-1V7c0-.554-.447-1-1.002-1zM8 7h6.002v4H8z" paint-order="markers stroke fill" style="fill:currentColor" class="ColorScheme-Text" />
  <rect width="4" height="1" x="9" y="13" rx="0" ry="0" paint-order="markers stroke fill" style="fill:currentColor" class="ColorScheme-Text" />
</svg>