<?xml version="1.0" encoding="utf-8"?>
<svg width="16" height="16" version="1.1" xmlns="http://www.w3.org/2000/svg">
  <style type="text/css" id="current-color-scheme" xmlns="">
      .ColorScheme-Text {
        color:#31363b;
      }
</style>
 <g style="fill:currentColor" class="ColorScheme-Text">
  <g fill-rule="evenodd" style="fill:currentColor" class="ColorScheme-Text">
   <rect x="2" y="9" width="2" height="2" rx="0" ry="0" style="paint-order:fill markers stroke;fill:currentColor" class="ColorScheme-Text" />
   <rect x="2" y="6" width="2" height="2" rx="0" ry="0" style="paint-order:fill markers stroke;fill:currentColor" class="ColorScheme-Text" />
   <rect x="2" y="4" width="2" height="1" rx="0" ry="0" stroke-width=".70711" style="paint-order:fill markers stroke;fill:currentColor" class="ColorScheme-Text" />
  </g>
  <path d="m4.5 14h7c0.277 0 0.5 0.223 0.5 0.5s-0.223 0.5-0.5 0.5h-7c-0.277 0-0.5-0.223-0.5-0.5s0.223-0.5 0.5-0.5z" style="fill:currentColor" class="ColorScheme-Text" />
  <path d="m2 2c-1.108 0-2 0.892-2 2v7c0 1.108 0.892 2 2 2h12c1.108 0 2-0.892 2-2v-7c0-1.108-0.892-2-2-2zm0 1h12c0.554 0 1 0.446 1 1v7c0 0.554-0.446 1-1 1h-12c-0.554 0-1-0.446-1-1v-7c0-0.554 0.446-1 1-1z" style="fill:currentColor" class="ColorScheme-Text" />
 </g>
</svg>