<?xml version="1.0" encoding="utf-8"?>
<svg height="16" width="16" xmlns="http://www.w3.org/2000/svg">
  <style type="text/css" id="current-color-scheme" xmlns="">
      .ColorScheme-Text {
        color:#31363b;
      }
</style>
  <g style="fill:currentColor" class="ColorScheme-Text">
    <path d="M11 12h5v1h-5z" style="fill:currentColor" class="ColorScheme-Text" />
    <path d="M13 10h1v5h-1zM13 8h1v1h-1zM1 8h1v1H1zM13 4h1v1h-1zM1 4h1v1H1zM13 2h1v1h-1zM1 2h1v1H1zM1 10h1v1H1zM1 12h1v1H1zM3 12h1v1H3zM5 12h1v1H5zM7 12h1v1H7zM3 2h1v1H3zM5 2h1v1H5zM7 2h1v1H7zM11 2h1v1h-1zM9 12h1v1H9zM9 2h1v1H9zM13 6h1v1h-1zM1 6h1v1H1z" style="fill:currentColor" class="ColorScheme-Text" />
  </g>
</svg>