<?xml version="1.0" encoding="utf-8"?>
<svg width="16" height="16" version="1.1" xmlns="http://www.w3.org/2000/svg">
  <style type="text/css" id="current-color-scheme" xmlns="">
      .ColorScheme-Text {
        color:#31363b;
      }
</style>
 <g style="fill:currentColor" class="ColorScheme-Text">
  <path d="m3.5 1c-1.939 0-3.5 1.561-3.5 3.5s1.561 3.5 3.5 3.5h9c1.939 0 3.5-1.561 3.5-3.5s-1.561-3.5-3.5-3.5h-9zm0 1h9c1.385 0 2.5 1.115 2.5 2.5s-1.115 2.5-2.5 2.5h-9c-1.385 0-2.5-1.115-2.5-2.5s1.115-2.5 2.5-2.5z" style="fill:currentColor" class="ColorScheme-Text" />
  <circle cx="3.5" cy="4.5" r="1.5" style="fill:currentColor" class="ColorScheme-Text" />
  <path d="m3.5 9c-1.9385 0-3.5 1.5616-3.5 3.5 2.9606e-16 1.9385 1.5615 3.5 3.5 3.5h9c1.9385 0 3.5-1.5616 3.5-3.5 0-1.9385-1.5615-3.5-3.5-3.5h-9zm9 2a1.5 1.5 0 0 1 1.5 1.5 1.5 1.5 0 0 1-1.5 1.5 1.5 1.5 0 0 1-1.5-1.5 1.5 1.5 0 0 1 1.5-1.5z" style="fill:currentColor" class="ColorScheme-Text" />
 </g>
</svg>