<?xml version="1.0" encoding="utf-8"?>

<svg width="16" height="16" version="1.1" xmlns="http://www.w3.org/2000/svg">
  <style type="text/css" id="current-color-scheme" xmlns="">
      .ColorScheme-Text {
        color:#31363b;
      }
</style>
  
 <defs>
  
 </defs>
 <path d="m3 1c-1.108 0-2 0.892-2 2v10c0 1.108 0.892 2 2 2h9c1.108 0 2-0.892 2-2v-8h-1v8c0 0.554-0.446 1-1 1h-9c-0.554 0-1-0.446-1-1v-10c0-0.554 0.446-1 1-1h7v-1z" class="ColorScheme-Text" fill="currentColor" style="fill:currentColor" />
 <path d="m7 4v6.0859l-1.7988-1.7988-0.70703 0.70703 3.0059 3.0059 3.0059-3.0059-0.70703-0.70703-1.7988 1.7988v-6.0859h-1z" class="ColorScheme-Text" fill="currentColor" style="fill:currentColor" />
 <path d="m14 6-1-1h-2c-0.554 0-1-0.446-1-1v-2l-1-1v3c0 1.108 0.892 2 2 2z" class="ColorScheme-Text" fill="currentColor" style="fill:currentColor" />
 <path d="m10 1-0.70703 0.70703 4.707 4.707v-1.4141l-4-4z" class="ColorScheme-Text" fill="currentColor" style="fill:currentColor" />
</svg>