<?xml version="1.0" encoding="utf-8"?>

<svg height="15.974" width="16" xmlns="http://www.w3.org/2000/svg">
  <style type="text/css" id="current-color-scheme" xmlns="">
      .ColorScheme-Text {
        color:#31363b;
      }
</style>
  
    <g transform="translate(-553 -17)" style="fill:currentColor" class="ColorScheme-Text">
        
        <path color="#000" d="M554 18v1h1v-1zm2 0v1h1v-1zm2 0v1h1v-1zm2 0v1h1v-1zm2 0v1h1v-1zm2 0v1h1v-1zm2 0v1h1v-1zm-12 2v1h1v-1zm2 0v4h9v-4zm10 0v1h1v-1zm-12 2v1h1v-1zm12 0v1h1v-1zm-12 2v1h1v-1zm12 0v1h1v-1zm-10 1v4h4v-4zm5 0v4h4v-4zm-7 1v1h1v-1zm12 0v1h1v-1zm-12 2v1h1v-1zm12 0v1h1v-1zm-12 2v1h1v-1zm2 0v1h1v-1zm2 0v1h1v-1zm2 0v1h1v-1zm2 0v1h1v-1zm2 0v1h1v-1zm2 0v1h1v-1z" overflow="visible" style="isolation:auto;mix-blend-mode:normal;marker:none;fill:currentColor" class="ColorScheme-Text" />
    </g>
</svg>