<?xml version="1.0" encoding="utf-8"?>

<svg xmlns="http://www.w3.org/2000/svg" width="16" height="16">
  <style type="text/css" id="current-color-scheme" xmlns="">
      .ColorScheme-Text {
        color:#31363b;
      }
</style>
  
  <path d="M1 2c-.554 0-1 .446-1 1v10c0 .554.446 1 1 1h13c.554 0 1-.446 1-1V3c0-.554-.446-1-1-1zm0 1h13v10H1z" opacity=".5" fill-rule="evenodd" paint-order="fill markers stroke" style="fill:currentColor" class="ColorScheme-Text" />
  <path opacity=".5" fill-rule="evenodd" paint-order="fill markers stroke" d="M2 4h2v2H2zM5 4h2v2H5zM8 4h2v2H8zM11 4h2v2h-2zM2 7h2v2H2zM5 7h2v2H5zM8 7h2v2H8zM11 7h2v2h-2zM4 10h7v2H4z" style="fill:currentColor" class="ColorScheme-Text" />
</svg>