<?xml version="1.0" encoding="utf-8"?>

<svg width="16" height="16" version="1.1" xmlns="http://www.w3.org/2000/svg">
  <style type="text/css" id="current-color-scheme" xmlns="">
      .ColorScheme-Text {
        color:#31363b;
      }
</style>
  
 <path d="m5 12 3 4 3-4z" style="fill:currentColor" class="ColorScheme-Text" />
 <path d="m6.5 3-2.5 2.5v2.5h8v-2l-1.25-1.25-1.25 1.25z" overflow="visible" style="fill:currentColor" class="ColorScheme-Text" />
 <path d="m4 1c-1.108 0-2 0.892-2 2v5c0 1.108 0.892 2 2 2h8c1.108 0 2-0.892 2-2v-5c0-1.108-0.892-2-2-2h-8zm0 1h8c0.554 0 1 0.446 1 1v5c0 0.554-0.446 1-1 1h-8c-0.554 0-1-0.446-1-1v-5c0-0.554 0.446-1 1-1z" stroke-linecap="round" stroke-linejoin="round" stroke-opacity=".25" stroke-width="1.0016" style="paint-order:markers stroke fill;fill:currentColor" class="ColorScheme-Text" />
</svg>