<?xml version="1.0" encoding="utf-8"?>

<svg width="16" height="16" version="1.1" xmlns="http://www.w3.org/2000/svg">
  <style type="text/css" id="current-color-scheme" xmlns="">
      .ColorScheme-Text {
        color:#31363b;
      }
</style>
  
 <path d="m5 12 3 4 3-4z" style="fill:currentColor" class="ColorScheme-Text" />
 <path d="m3 0c-1.108 0-2 0.892-2 2v7c0 1.108 0.892 2 2 2h10c1.108 0 2-0.892 2-2v-7c0-1.108-0.892-2-2-2zm0 1h10c0.554 0 1 0.446 1 1v7c0 0.554-0.446 1-1 1h-10c-0.554 0-1-0.446-1-1v-7c0-0.554 0.446-1 1-1z" style="fill:currentColor" class="ColorScheme-Text" />
 <rect x="6" y="6" width="4" height="2" rx="1" ry="1" style="fill:currentColor" class="ColorScheme-Text" />
 <rect x="11" y="6" width="2" height="2" rx="1" ry="1" style="fill:currentColor" class="ColorScheme-Text" />
 <rect x="3" y="6" width="2" height="2" rx="1" ry="1" style="fill:currentColor" class="ColorScheme-Text" />
 <rect x="4" y="3" width="2" height="2" rx="1" ry="1" style="fill:currentColor" class="ColorScheme-Text" />
 <rect x="7" y="3" width="2" height="2" rx="1" ry="1" style="fill:currentColor" class="ColorScheme-Text" />
 <rect x="10" y="3" width="2" height="2" rx="1" ry="1" style="fill:currentColor" class="ColorScheme-Text" />
</svg>