<?xml version="1.0" encoding="utf-8"?>

<svg xmlns="http://www.w3.org/2000/svg" height="16" width="16" enable-background="new">
  <style type="text/css" id="current-color-scheme" xmlns="">
      .ColorScheme-Text {
        color:#31363b;
      }
</style>
  
  <defs>
    <filter id="a" color-interpolation-filters="sRGB" style="fill:currentColor" class="ColorScheme-Text">
      <feBlend in2="BackgroundImage" mode="darken" style="fill:currentColor" class="ColorScheme-Text" />
    </filter>
  </defs>
  <path d="M5.219 1l-.313.281-3.625 3.625L1 5.22V10.78l.281.313 3.625 3.625.313.281H10.78l.313-.281 3.625-3.625.281-.313V5.22l-.281-.313-3.625-3.625L10.78 1H5.22zm.406 1h4.75L14 5.625v4.75L10.375 14h-4.75L2 10.375v-4.75L5.625 2zM7 4c0 3.349.003 4.315 0 5h2c-.005-2-.009-3 0-5H7zm0 6v2h2v-2H7z" style="line-height:normal;-inkscape-font-specification:Sans;text-indent:0;text-align:start;text-decoration-line:none;text-transform:none;block-progression:tb;marker:none;fill:currentColor" color="#000" font-weight="400" font-family="Sans" overflow="visible" enable-background="accumulate" class="ColorScheme-Text" />
</svg>