<?xml version="1.0" encoding="utf-8"?>

<svg xmlns="http://www.w3.org/2000/svg" width="16" height="16" enable-background="new">
  <style type="text/css" id="current-color-scheme" xmlns="">
      .ColorScheme-Text {
        color:#31363b;
      }
</style>
  
  <defs>
    <filter id="a" color-interpolation-filters="sRGB" style="fill:currentColor" class="ColorScheme-Text">
      <feBlend mode="darken" in2="BackgroundImage" style="fill:currentColor" class="ColorScheme-Text" />
    </filter>
  </defs>
  <g color="#363636" font-weight="400" font-family="Sans" style="fill:currentColor" class="ColorScheme-Text">
    <path style="line-height:normal;-inkscape-font-specification:Sans;text-indent:0;text-align:start;text-decoration-line:none;text-transform:none;block-progression:tb;marker:none;fill:currentColor" d="M6.5 1.5L.03 6l6.47 4.5V9.457L1.53 6 6.5 2.543z" overflow="visible" enable-background="accumulate" class="ColorScheme-Text" />
    <path style="line-height:normal;-inkscape-font-specification:Sans;text-indent:0;text-align:start;text-decoration-line:none;text-transform:none;block-progression:tb;marker:none;fill:currentColor" d="M10 1.503l-6.469 4.5 6.469 4.5v-2.5h.5c1.365 0 2.572.874 2.938 2 .437 1.348-1.438 4-1.438 4s4-1.5 4-4.75c0-3.123-2-5.25-5-5.25h-1v-2.5zM9 3.41v1.593h2c1.264 0 2.226.44 2.906 1.157.68.716 1.094 1.745 1.094 3.093 0 .672-.243 1.22-.594 1.72.058-.416.118-.822-.03-1.282-.52-1.597-2.085-2.688-3.876-2.688H9V8.597L5.25 6.003 9 3.41z" overflow="visible" enable-background="accumulate" class="ColorScheme-Text" />
  </g>
</svg>