<?xml version="1.0" encoding="utf-8"?>

<svg width="16" height="16" enable-background="new" version="1.1" xmlns="http://www.w3.org/2000/svg">
  <style type="text/css" id="current-color-scheme" xmlns="">
      .ColorScheme-Text {
        color:#31363b;
      }
</style>
  
 <g style="fill:currentColor" class="ColorScheme-Text">
  <path d="m8 3a6 6 0 0 0-6 6 6 6 0 0 0 6 6 6 6 0 0 0 6-6h-1a5 5 0 0 1-5 5 5 5 0 0 1-5-5 5 5 0 0 1 5-5z" style="fill:currentColor" class="ColorScheme-Text" />
  <path d="m8.1719 0.67188-0.70703 0.70703 2.1211 2.1211-2.1211 2.1211 0.70703 0.70703 2.8281-2.8281-0.70703-0.70703z" style="fill:currentColor" class="ColorScheme-Text" />
  <rect x="8" y="3" width="2" height="1" style="fill:currentColor" class="ColorScheme-Text" />
 </g>
</svg>