<svg width="16" height="16" viewBox="0 0 16 16" version="1.1" xmlns="http://www.w3.org/2000/svg">
 <defs><style type="text/css" id="current-color-scheme" xmlns="">
      .ColorScheme-Text {
        color:#31363b;
      }
</style></defs>
 <path class="ColorScheme-Text" style="isolation:auto;mix-blend-mode:normal;paint-order:normal;fill:currentColor" fill="#31363b" d="M 10.001,13.988 L 10.001,1.988 L 11.001,1.988 L 11.001,13.988 Z"/>
 <path class="ColorScheme-Text" style="fill:currentColor" fill="#31363b" d="m 1.00028,12.988 c -2.22044604925E-16,1.108 0.892,2 2,2 l 10,0 c 1.108,0 2,-0.892 2,-2 l 0,-10 c 0,-1.108 -0.892,-2 -2,-2 l -10,0 c -1.108,0 -2,0.892 -2,2 z m 1,0 l 4.4408920985E-16,-10 c 0,-0.554 0.446,-1 1,-1 l 10,0 c 0.554,0 1,0.446 1,1 l 0,10 c 0,0.554 -0.446,1 -1,1 l -10,0 c -0.554,0 -1,-0.446 -1,-1 z"/>
</svg>
