<?xml version="1.0" encoding="utf-8"?>

<svg width="16" height="16" version="1.1" xmlns="http://www.w3.org/2000/svg">
  <style type="text/css" id="current-color-scheme" xmlns="">
      .ColorScheme-Text {
        color:#31363b;
      }
</style>
  
 <path d="m7 5v3h-3v1h3v3h1v-3h3v-1h-3v-3z" stroke-linecap="round" stroke-linejoin="round" stroke-width="1.1851" style="fill:currentColor" class="ColorScheme-Text" />
 <path d="M 7.4628906,1 A 7.5,7.5 0 0 0 0,8.5 7.5,7.5 0 0 0 7.5,16 7.5,7.5 0 0 0 15,8.5 7.5,7.5 0 0 0 7.5,1 7.5,7.5 0 0 0 7.4628906,1 Z M 7.5,2 A 6.5,6.5 0 0 1 14,8.5 6.5,6.5 0 0 1 7.5,15 6.5,6.5 0 0 1 1,8.5 6.5,6.5 0 0 1 7.5,2 Z" stroke-linecap="round" stroke-linejoin="round" stroke-width="1.0016" style="fill:currentColor" class="ColorScheme-Text" />
</svg>