<?xml version="1.0" encoding="utf-8"?>
<svg width="16" height="16" version="1.1" xmlns="http://www.w3.org/2000/svg">
  <style type="text/css" id="current-color-scheme" xmlns="">
      .ColorScheme-Text {
        color:#31363b;
      }
</style>
 <path class="error ColorScheme-Text" d="m5.5254 4.8184 2.4746 2.4746 2.4746-2.4746 0.70703 0.70703-2.4746 2.4746 2.4746 2.4746-0.70703 0.70703-2.4746-2.4746-2.4746 2.4746-0.70703-0.70703 2.4746-2.4746-2.4746-2.4746z" style="fill:currentColor" />
 <path d="m8 0a8 8 0 0 0-8 8 8 8 0 0 0 8 8 8 8 0 0 0 8-8 8 8 0 0 0-8-8zm-0.09375 1a7 7 0 0 1 0.09375 0 7 7 0 0 1 7 7 7 7 0 0 1-7 7 7 7 0 0 1-7-7 7 7 0 0 1 6.9062-7z" stroke-linecap="round" stroke-linejoin="round" stroke-width="2" style="fill:currentColor" class="ColorScheme-Text" />
</svg>