<?xml version="1.0" encoding="utf-8"?>
<svg width="16" height="16" version="1.1" xmlns="http://www.w3.org/2000/svg">
  <style type="text/css" id="current-color-scheme" xmlns="">
      .ColorScheme-Text {
        color:#31363b;
      }
</style>
 <path d="m8 0a8 8 0 0 0-8 8 8 8 0 0 0 8 8 8 8 0 0 0 8-8 8 8 0 0 0-8-8zm-0.09375 1a7 7 0 0 1 0.09375 0 7 7 0 0 1 7 7 7 7 0 0 1-7 7 7 7 0 0 1-7-7 7 7 0 0 1 6.9062-7z" stroke-linecap="round" stroke-linejoin="round" stroke-width="2" style="fill:currentColor" class="ColorScheme-Text" />
 <path d="m5.1288 5.2144a4 4 0 0 0-0.57452 4.8172l2.0316-2.0316-0.70711-0.70711-0.87284 0.87283a3 3 0 0 1 0.83693-2.2511 3 3 0 0 1 0.035908-0.035908 3 3 0 0 1 3.4126-0.58419l0.74025-0.74025a4 4 0 0 0-4.86 0.61734 4 4 0 0 0-0.042813 0.042813zm0.83969 6.2314a4 4 0 0 0 4.86-0.61734 4 4 0 0 0 0.61596-4.8586l-2.0302 2.0302 0.70711 0.70711 0.87284-0.87283a3 3 0 0 1-0.87284 2.287 3 3 0 0 1-3.4126 0.58419z" stroke-linecap="round" stroke-linejoin="round" stroke-width="2" style="fill:currentColor" class="ColorScheme-Text" />
</svg>