<?xml version="1.0" encoding="utf-8"?>
<svg height="16" width="16" xmlns="http://www.w3.org/2000/svg">
  <style type="text/css" id="current-color-scheme" xmlns="">
      .ColorScheme-Text {
        color:#31363b;
      }
</style>
    <g transform="translate(-853 271)" style="fill:currentColor" class="ColorScheme-Text">
        <path d="M861-271a8 8 0 0 1 8 8 8 8 0 0 1-8 8 8 8 0 0 1-8-8 8 8 0 0 1 8-8zm0 1a7 7 0 0 0-7 7 7 7 0 0 0 7 7 7 7 0 0 0 7-7 7 7 0 0 0-7-7zm0 2.75a1.25 1.25 0 1 1 0 2.5 1.25 1.25 0 0 1 0-2.5zm1 3.25v5h-2v-5h1z" style="fill:currentColor" class="ColorScheme-Text" />
    </g>
</svg>