<?xml version="1.0" encoding="utf-8"?>
<svg width="16" height="16.001" version="1.1" xmlns="http://www.w3.org/2000/svg">
  <style type="text/css" id="current-color-scheme" xmlns="">
      .ColorScheme-Text {
        color:#31363b;
      }
</style>
 <path d="m12 2v4.0234a5.5 5.5 0 0 1 1 0.18555v-3.209h1v3.6035a5.5 5.5 0 0 1 1 0.6543v-5.2578h-3zm-4 3v2.2676a5.5 5.5 0 0 1 1-0.6543v-0.61328h1v0.21289a5.5 5.5 0 0 1 1-0.17578v-1.0371h-3zm-4 3v6h2.6133a5.5 5.5 0 0 1-0.61328-2.5v1.5h-1v-4h1v2.5a5.5 5.5 0 0 1 1-3.1426v-0.35742h-3zm-4 3v3h3v-3h-3zm1 1h1v1h-1v-1z" style="fill:currentColor" class="ColorScheme-Text" />
 <path d="m11.5 7a4.5 4.5 0 0 0-4.5 4.5 4.5 4.5 0 0 0 4.5 4.5 4.5 4.5 0 0 0 4.5-4.5 4.5 4.5 0 0 0-4.5-4.5zm0 1a3.5 3.5 0 0 1 3.5 3.5 3.5 3.5 0 0 1-3.5 3.5 3.5 3.5 0 0 1-3.5-3.5 3.5 3.5 0 0 1 3.5-3.5zm-1.4141 1.3789-0.70703 0.70703 1.4141 1.4141-1.4141 1.4141 0.70703 0.70703 1.4141-1.4141 1.4141 1.4141 0.70703-0.70703-1.4141-1.4141 1.4141-1.4141-0.70703-0.70703-1.4141 1.4141z" style="paint-order:stroke fill markers;fill:currentColor" class="ColorScheme-Text" />
</svg>