<?xml version="1.0" encoding="utf-8"?>
<svg width="16" height="16" version="1.1" xmlns="http://www.w3.org/2000/svg">
  <style type="text/css" id="current-color-scheme" xmlns="">
      .ColorScheme-Text {
        color:#31363b;
      }
</style>
 <g transform="translate(0,-1)" stroke-linecap="square" style="fill:currentColor" class="ColorScheme-Text">
  <path d="m1 3c-0.554 0-1 0.446-1 1v1a1 1 0 0 1 1 1 1 1 0 0 1-1 1v1a1 1 0 0 1 1 1 1 1 0 0 1-1 1v1a1 1 0 0 1 1 1h14a1 1 0 0 1 1-1v-1a1 1 0 0 1-1-1 1 1 0 0 1 1-1v-1a1 1 0 0 1-1-1 1 1 0 0 1 1-1v-1c0-0.554-0.446-1-1-1zm2 1h10c0.554 0 1 0.446 1 1v5c0 0.554-0.446 1-1 1h-10c-0.554 0-1-0.446-1-1v-5c0-0.554 0.446-1 1-1zm-3 9v1c0 0.554 0.446 1 1 1h6v-2zm8 0v2h7c0.554 0 1-0.446 1-1v-1z" stroke-width="2.089" style="fill:currentColor" class="ColorScheme-Text" />
  <g stroke-width="1.581" style="fill:currentColor" class="ColorScheme-Text">
   <rect x="4" y="5" width="2" height="5" rx=".014" ry="0" style="fill:currentColor" class="ColorScheme-Text" />
   <rect x="7" y="5" width="2" height="5" rx="0" ry="0" style="fill:currentColor" class="ColorScheme-Text" />
   <rect x="10" y="5" width="2" height="5" rx="0" ry="0" style="fill:currentColor" class="ColorScheme-Text" />
  </g>
 </g>
</svg>