<?xml version="1.0" encoding="utf-8"?>
<svg height="16" width="16" xmlns="http://www.w3.org/2000/svg">
  <style type="text/css" id="current-color-scheme" xmlns="">
      .ColorScheme-Text {
        color:#31363b;
      }
</style>
    <g color="#bebebe" transform="translate(-933 171)" style="fill:currentColor" class="ColorScheme-Text">
        
        <path d="M940.988-169.986c-3.857 0-7 3.142-7 7 0 3.857 3.143 7 7 7 3.858 0 7-3.143 7-7 0-3.858-3.142-7-7-7zm0 .998a5.999 5.999 0 0 1 6.002 6.002 5.999 5.999 0 0 1-6.002 6.002 5.999 5.999 0 0 1-6.002-6.002 5.999 5.999 0 0 1 6.002-6.002z" font-family="Andale Mono" font-weight="400" overflow="visible" style="line-height:normal;font-variant-ligatures:normal;font-variant-position:normal;font-variant-caps:normal;font-variant-numeric:normal;font-variant-alternates:normal;font-feature-settings:normal;text-indent:0;text-align:start;text-decoration-line:none;text-decoration-style:solid;text-decoration-color:#000;text-transform:none;text-orientation:mixed;shape-padding:0;isolation:auto;mix-blend-mode:normal;marker:none;fill:currentColor" white-space="normal" class="ColorScheme-Text" />
    </g>
</svg>