<?xml version="1.0" encoding="utf-8"?>
<svg height="16" width="16" xmlns="http://www.w3.org/2000/svg">
  <style type="text/css" id="current-color-scheme" xmlns="">
      .ColorScheme-Text {
        color:#31363b;
      }
</style>
    <g transform="translate(-933 151)" style="fill:currentColor" class="ColorScheme-Text">
        <path color="#000" d="M941-150c-3.86 0-7 3.14-7 7s3.14 7 7 7 7-3.14 7-7c0-1.304-.379-2.513-1-3.563-1.217-2.055-3.444-3.437-6-3.437zm0 1c1.336 0 2.569.454 3.563 1.188l-4.781 6.03-3.063-2.655-1.656 2.218A6.132 6.132 0 0 1 935-143c0-3.32 2.68-6 6-6zm5.344 3.281A5.992 5.992 0 0 1 941-137a5.97 5.97 0 0 1-5.906-5.063l5.156 4.438z" overflow="visible" style="marker:none;fill:currentColor" class="ColorScheme-Text" />
        
    </g>
</svg>