<?xml version="1.0" encoding="utf-8"?>
<svg width="16" height="16" version="1.1" xmlns="http://www.w3.org/2000/svg">
  <style type="text/css" id="current-color-scheme" xmlns="">
      .ColorScheme-Text {
        color:#31363b;
      }
</style>
 <path d="m3 1c-1.662 0-3 1.338-3 3v7c0 1.662 1.338 3 3 3h10c1.662 0 3-1.338 3-3v-7c0-1.662-1.338-3-3-3h-10zm0 1h10c1.108 0 2 0.892 2 2v7c0 1.108-0.892 2-2 2h-10c-1.108 0-2-0.892-2-2v-7c0-1.108 0.892-2 2-2z" stroke-linecap="round" stroke-linejoin="round" stroke-width="1.0016" style="fill:currentColor" class="ColorScheme-Text" />
 <rect x="4" y="15" width="8" height="1" rx=".5" ry=".5" stroke-linecap="round" stroke-linejoin="round" stroke-width="1.0016" style="fill:currentColor" class="ColorScheme-Text" />
 <path d="m8 3 4 4-4 4v-3c-2.875-0.125-4 3-4 3 0-2.344 0.969-5 4-5z" color="#bebebe" overflow="visible" style="fill:currentColor" class="ColorScheme-Text" />
</svg>