<?xml version="1.0" encoding="utf-8"?>
<svg width="16" height="16" xmlns="http://www.w3.org/2000/svg">
  <style type="text/css" id="current-color-scheme" xmlns="">
      .ColorScheme-Text {
        color:#31363b;
      }
</style>
  <g transform="translate(-1253 327)" style="fill:currentColor" class="ColorScheme-Text">
    <path d="M1255-326c-1.108 0-2 .892-2 2v8c0 1.108.892 2 2 2h1.522l2.478 3 2-3h6c1.108 0 2-.892 2-2v-8c0-1.108-.892-2-2-2zm0 1h12c.554 0 1 .446 1 1v8c0 .554-.446 1-1 1h-6.434l-1.566 2.4-1.966-2.4H1255c-.554 0-1-.446-1-1v-8c0-.554.446-1 1-1zm-.7 11c.153.017.322.021.524 0z" style="fill:currentColor" class="ColorScheme-Text" />
    <rect x="1256" y="-323" width="10" height="1" rx=".25" ry=".25" style="fill:currentColor" class="ColorScheme-Text" />
    <rect x="1256" y="-321" width="7" height="1" rx=".25" ry=".25" style="fill:currentColor" class="ColorScheme-Text" />
  </g>
</svg>