<?xml version="1.0" encoding="utf-8"?>

<svg width="16" height="16" version="1.1" xmlns="http://www.w3.org/2000/svg" xmlns:cc="http://creativecommons.org/ns#" xmlns:dc="http://purl.org/dc/elements/1.1/" xmlns:rdf="http://www.w3.org/1999/02/22-rdf-syntax-ns#">
  <style type="text/css" id="current-color-scheme" xmlns="">
      .ColorScheme-Text {
        color:#31363b;
      }
</style>
 <metadata>
  <rdf:RDF style="fill:currentColor" class="ColorScheme-Text">
   <cc:Work rdf:about="" style="fill:currentColor" class="ColorScheme-Text">
    <dc:format style="fill:currentColor" class="ColorScheme-Text">image/svg+xml</dc:format>
    <dc:type rdf:resource="http://purl.org/dc/dcmitype/StillImage" style="fill:currentColor" class="ColorScheme-Text" />
    <dc:title style="fill:currentColor" class="ColorScheme-Text" />
   </cc:Work>
  </rdf:RDF>
 </metadata>
 <defs>
  
 </defs>
 <g stroke-linecap="round" stroke-linejoin="round" style="fill:currentColor" class="ColorScheme-Text">
  <path d="m8 1a6 6 0 0 0-6 6 6 6 0 0 0 6 6 6 6 0 0 0 6-6 6 6 0 0 0-6-6zm0 1a5 5 0 0 1 5 5 5 5 0 0 1-5 5 5 5 0 0 1-5-5 5 5 0 0 1 5-5z" stroke-width="1.0909" style="fill:currentColor" class="ColorScheme-Text" />
  <path d="m5 14c-1.108 0-2 0.892-2 2h1c0-0.554 0.446-1 1-1h6c0.554 0 1 0.446 1 1h1c0-1.108-0.892-2-2-2h-6z" style="fill:currentColor" class="ColorScheme-Text" />
  <path d="m7.9492 4a3 3 0 0 0-2.9492 3 3 3 0 0 0 3 3 3 3 0 0 0 3-3 3 3 0 0 0-3-3 3 3 0 0 0-0.050781 0zm0.050781 2a1 1 0 0 1 1 1 1 1 0 0 1-1 1 1 1 0 0 1-1-1 1 1 0 0 1 1-1z" stroke-width="1.5" style="fill:currentColor" class="ColorScheme-Text" />
 </g>
</svg>