<?xml version="1.0" encoding="utf-8"?>
<svg width="16" height="16" version="1.1" xmlns="http://www.w3.org/2000/svg">
  <style type="text/css" id="current-color-scheme" xmlns="">
      .ColorScheme-Text {
        color:#31363b;
      }
</style>
 <g transform="matrix(1.6677 0 0 1 -2061.6 -40.003)" style="fill:currentColor" class="ColorScheme-Text">
  <rect x="1238" y="48.003" width="6" height="1" rx="0" ry="0" overflow="visible" style="fill:currentColor" class="ColorScheme-Text" />
 </g>
 <path d="m3 0c-0.554 0-1 0.446-1 1v14c0 0.554 0.446 1 1 1h10c0.554 0 1-0.446 1-1v-14c0-0.554-0.446-1-1-1h-10zm0 1h10v14h-10v-14z" stroke-linecap="round" stroke-linejoin="round" stroke-width="2" style="paint-order:stroke fill markers;fill:currentColor" class="ColorScheme-Text" />
 <circle cx="11.5" cy="13.5" r=".5" stroke-linecap="round" stroke-linejoin="round" stroke-width="2" style="paint-order:stroke fill markers;fill:currentColor" class="ColorScheme-Text" />
 <g transform="matrix(1.6677 0 0 7 -2061.6 -335.02)" opacity=".15" style="fill:currentColor" class="ColorScheme-Text">
  <rect x="1238" y="48.003" width="6" height="1" rx="0" ry="0" overflow="visible" style="fill:currentColor" class="ColorScheme-Text" />
 </g>
</svg>